
 <svg display="none" xmlns="http://www.w3.org/2000/svg">
 <symbol viewBox="0 0 33 33" id="main-logo">
 <g>
<path d="M24.1011 16.5C24.1011 16.0945 24.3801 15.7398 24.7776 15.6478C27.7445 14.9559 29.8158 12.3427 29.8158 9.28711C29.8158 5.68162 26.89 2.75 23.2975 2.75C20.2319 2.75 17.5476 4.93303 16.9194 7.93851L24.1011 16.5ZM24.1011 16.5C24.1011 16.9052 24.3798 17.2598 24.7769 17.3521L24.1011 16.5ZM16.9194 25.0615C17.5476 28.067 20.2319 30.25 23.2975 30.25C26.89 30.25 29.8158 27.3184 29.8158 23.7129C29.8158 20.6573 27.7445 18.0441 24.7776 17.3522L16.9194 25.0615ZM16.9194 25.0615C16.8351 24.6567 16.4785 24.3654 16.0639 24.3654C15.6494 24.3654 15.2928 24.6567 15.2085 25.0615C14.5801 28.067 11.8957 30.25 8.83015 30.25C5.23764 30.25 2.31186 27.3184 2.31186 23.7129C2.31186 20.6573 4.38316 18.0441 7.35008 17.3522C7.74759 17.2602 8.0266 16.9055 8.0266 16.5C8.0266 16.0948 7.74793 15.7402 7.35082 15.6479L16.9194 25.0615ZM15.2085 7.93851C14.5801 4.93301 11.8957 2.75 8.83015 2.75C5.23764 2.75 2.31186 5.68162 2.31186 9.28711C2.31186 12.3427 4.38316 14.9559 7.35008 15.6478L15.2085 7.93851ZM15.2085 7.93851C15.2928 8.34326 15.6494 8.63464 16.0639 8.63464C16.4783 8.63464 16.8349 8.34341 16.9193 7.93882L15.2085 7.93851ZM8.83015 32C11.8854 32 14.636 30.2954 16.0639 27.7195C17.4916 30.2954 20.2421 32 23.2975 32C27.8572 32 31.5638 28.2816 31.5638 23.7129C31.5638 20.6523 29.9198 17.9359 27.3694 16.5C29.9198 15.0641 31.5638 12.3477 31.5638 9.28711C31.5638 4.7184 27.8572 1 23.2975 1C20.2421 1 17.4916 2.70458 16.0639 5.2805C14.636 2.70458 11.8854 1 8.83015 1C4.27048 1 0.563843 4.7184 0.563843 9.28711C0.563843 12.3477 2.20788 15.0641 4.75833 16.5C2.20788 17.9359 0.563843 20.6523 0.563843 23.7129C0.563843 28.2816 4.27048 32 8.83015 32Z" fill="#3DB370" stroke="#3DB370"/>
</g>
</symbol>


<symbol viewBox="0 0 152 27" id="main-name">
<g>
<path d="M2.132 26.5C1.712 26.5 1.362 26.36 1.082 26.08C0.825338 25.8 0.697005 25.4617 0.697005 25.065V3.4C0.697005 3.00333 0.825338 2.67667 1.082 2.42C1.362 2.14 1.70034 2 2.097 2H14.382C14.7787 2 15.117 2.12833 15.397 2.385C15.677 2.64167 15.817 2.96833 15.817 3.365C15.817 3.73833 15.677 4.05333 15.397 4.31C15.117 4.56667 14.7787 4.695 14.382 4.695H3.357L3.567 4.415V12.99L3.392 12.605H12.807C13.2037 12.605 13.542 12.745 13.822 13.025C14.102 13.2817 14.242 13.6083 14.242 14.005C14.242 14.355 14.102 14.67 13.822 14.95C13.542 15.2067 13.2037 15.335 12.807 15.335H3.322L3.567 15.02V25.065C3.567 25.4617 3.427 25.8 3.147 26.08C2.867 26.36 2.52867 26.5 2.132 26.5ZM21.0894 26.5C20.6928 26.5 20.3544 26.36 20.0744 26.08C19.8178 25.8 19.6894 25.4617 19.6894 25.065V9.805C19.6894 9.40833 19.8178 9.08167 20.0744 8.825C20.3544 8.545 20.6928 8.405 21.0894 8.405C21.5094 8.405 21.8478 8.545 22.1044 8.825C22.3611 9.08167 22.4894 9.40833 22.4894 9.805V14.425L22.0694 13.69C22.2094 12.9667 22.4544 12.2667 22.8044 11.59C23.1778 10.89 23.6444 10.2717 24.2044 9.735C24.7644 9.175 25.4061 8.74333 26.1294 8.44C26.8528 8.11333 27.6461 7.95 28.5094 7.95C29.0228 7.95 29.4894 8.07833 29.9094 8.335C30.3528 8.56833 30.5744 8.90667 30.5744 9.35C30.5744 9.84 30.4461 10.2017 30.1894 10.435C29.9328 10.6683 29.6411 10.785 29.3144 10.785C29.0111 10.785 28.7194 10.7267 28.4394 10.61C28.1594 10.47 27.8094 10.4 27.3894 10.4C26.8061 10.4 26.2228 10.5633 25.6394 10.89C25.0794 11.1933 24.5544 11.6367 24.0644 12.22C23.5978 12.8033 23.2128 13.4683 22.9094 14.215C22.6294 14.9383 22.4894 15.72 22.4894 16.56V25.065C22.4894 25.4617 22.3494 25.8 22.0694 26.08C21.8128 26.36 21.4861 26.5 21.0894 26.5ZM41.3161 26.85C39.4495 26.85 37.8161 26.4533 36.4161 25.66C35.0161 24.8667 33.9195 23.7817 33.1261 22.405C32.3561 21.005 31.9711 19.395 31.9711 17.575C31.9711 15.545 32.3678 13.8183 33.1611 12.395C33.9778 10.9483 35.0278 9.85167 36.3111 9.105C37.6178 8.335 38.9945 7.95 40.4411 7.95C41.5145 7.95 42.5528 8.14833 43.5561 8.545C44.5595 8.94167 45.4461 9.525 46.2161 10.295C46.9861 11.0417 47.6045 11.9517 48.0711 13.025C48.5378 14.075 48.7828 15.2533 48.8061 16.56C48.8061 16.9333 48.6661 17.2483 48.3861 17.505C48.1061 17.7617 47.7795 17.89 47.4061 17.89H33.5811L32.9511 15.475H46.4261L45.8661 15.965V15.195C45.7728 14.2383 45.4461 13.4217 44.8861 12.745C44.3495 12.045 43.6845 11.5083 42.8911 11.135C42.1211 10.7617 41.3045 10.575 40.4411 10.575C39.7411 10.575 39.0411 10.7033 38.3411 10.96C37.6645 11.1933 37.0461 11.59 36.4861 12.15C35.9495 12.6867 35.5061 13.3867 35.1561 14.25C34.8295 15.1133 34.6661 16.1517 34.6661 17.365C34.6661 18.7183 34.9345 19.9083 35.4711 20.935C36.0311 21.9617 36.8011 22.7783 37.7811 23.385C38.7611 23.9683 39.9045 24.26 41.2111 24.26C42.0278 24.26 42.7395 24.155 43.3461 23.945C43.9528 23.735 44.4778 23.4783 44.9211 23.175C45.3645 22.8483 45.7378 22.5217 46.0411 22.195C46.3445 21.985 46.6361 21.88 46.9161 21.88C47.2661 21.88 47.5461 21.9967 47.7561 22.23C47.9895 22.4633 48.1061 22.7433 48.1061 23.07C48.1061 23.4667 47.9195 23.8167 47.5461 24.12C46.8928 24.8433 46.0061 25.485 44.8861 26.045C43.7661 26.5817 42.5761 26.85 41.3161 26.85ZM61.3796 26.85C59.513 26.85 57.8796 26.4533 56.4796 25.66C55.0796 24.8667 53.983 23.7817 53.1896 22.405C52.4196 21.005 52.0346 19.395 52.0346 17.575C52.0346 15.545 52.4313 13.8183 53.2246 12.395C54.0413 10.9483 55.0913 9.85167 56.3746 9.105C57.6813 8.335 59.058 7.95 60.5046 7.95C61.578 7.95 62.6163 8.14833 63.6196 8.545C64.623 8.94167 65.5096 9.525 66.2796 10.295C67.0496 11.0417 67.668 11.9517 68.1346 13.025C68.6013 14.075 68.8463 15.2533 68.8696 16.56C68.8696 16.9333 68.7296 17.2483 68.4496 17.505C68.1696 17.7617 67.843 17.89 67.4696 17.89H53.6446L53.0146 15.475H66.4896L65.9296 15.965V15.195C65.8363 14.2383 65.5096 13.4217 64.9496 12.745C64.413 12.045 63.748 11.5083 62.9546 11.135C62.1846 10.7617 61.368 10.575 60.5046 10.575C59.8046 10.575 59.1046 10.7033 58.4046 10.96C57.728 11.1933 57.1096 11.59 56.5496 12.15C56.013 12.6867 55.5696 13.3867 55.2196 14.25C54.893 15.1133 54.7296 16.1517 54.7296 17.365C54.7296 18.7183 54.998 19.9083 55.5346 20.935C56.0946 21.9617 56.8646 22.7783 57.8446 23.385C58.8246 23.9683 59.968 24.26 61.2746 24.26C62.0913 24.26 62.803 24.155 63.4096 23.945C64.0163 23.735 64.5413 23.4783 64.9846 23.175C65.428 22.8483 65.8013 22.5217 66.1046 22.195C66.408 21.985 66.6996 21.88 66.9796 21.88C67.3296 21.88 67.6096 21.9967 67.8196 22.23C68.053 22.4633 68.1696 22.7433 68.1696 23.07C68.1696 23.4667 67.983 23.8167 67.6096 24.12C66.9563 24.8433 66.0696 25.485 64.9496 26.045C63.8296 26.5817 62.6396 26.85 61.3796 26.85ZM81.8281 8.125C83.3681 8.125 84.5814 8.46333 85.4681 9.14C86.3781 9.79333 87.0198 10.68 87.3931 11.8C87.7898 12.8967 87.9881 14.1217 87.9881 15.475V25.065C87.9881 25.4617 87.8481 25.8 87.5681 26.08C87.3114 26.36 86.9848 26.5 86.5881 26.5C86.1914 26.5 85.8531 26.36 85.5731 26.08C85.3164 25.8 85.1881 25.4617 85.1881 25.065V15.475C85.1881 14.5883 85.0598 13.795 84.8031 13.095C84.5464 12.3717 84.1148 11.8 83.5081 11.38C82.9248 10.9367 82.1198 10.715 81.0931 10.715C80.1364 10.715 79.2614 10.9367 78.4681 11.38C77.6748 11.8 77.0448 12.3717 76.5781 13.095C76.1114 13.795 75.8781 14.5883 75.8781 15.475V25.065C75.8781 25.4617 75.7381 25.8 75.4581 26.08C75.2014 26.36 74.8748 26.5 74.4781 26.5C74.0814 26.5 73.7431 26.36 73.4631 26.08C73.2064 25.8 73.0781 25.4617 73.0781 25.065V2C73.0781 1.60333 73.2064 1.27667 73.4631 1.02C73.7431 0.739999 74.0814 0.6 74.4781 0.6C74.8981 0.6 75.2364 0.739999 75.4931 1.02C75.7498 1.27667 75.8781 1.60333 75.8781 2V12.465L75.1781 13.235C75.2948 12.6283 75.5514 12.0217 75.9481 11.415C76.3448 10.785 76.8464 10.225 77.4531 9.735C78.0598 9.245 78.7364 8.86 79.4831 8.58C80.2298 8.27667 81.0114 8.125 81.8281 8.125ZM108.086 8.23C108.482 8.23 108.809 8.37 109.066 8.65C109.346 8.90667 109.486 9.23333 109.486 9.63V25.065C109.486 25.4617 109.346 25.8 109.066 26.08C108.809 26.36 108.482 26.5 108.086 26.5C107.666 26.5 107.327 26.36 107.071 26.08C106.814 25.8 106.686 25.4617 106.686 25.065V21.74L107.351 21.67C107.351 22.1833 107.176 22.7433 106.826 23.35C106.476 23.9567 105.997 24.5283 105.391 25.065C104.784 25.5783 104.061 26.01 103.221 26.36C102.404 26.6867 101.517 26.85 100.561 26.85C98.9741 26.85 97.5508 26.4417 96.2908 25.625C95.0308 24.785 94.0274 23.6533 93.2808 22.23C92.5574 20.8067 92.1958 19.185 92.1958 17.365C92.1958 15.5217 92.5574 13.9 93.2808 12.5C94.0274 11.0767 95.0308 9.96833 96.2908 9.175C97.5508 8.35833 98.9508 7.95 100.491 7.95C101.494 7.95 102.427 8.11333 103.291 8.44C104.154 8.76667 104.901 9.21 105.531 9.77C106.184 10.33 106.686 10.9483 107.036 11.625C107.409 12.3017 107.596 12.9783 107.596 13.655L106.686 13.445V9.63C106.686 9.23333 106.814 8.90667 107.071 8.65C107.327 8.37 107.666 8.23 108.086 8.23ZM100.876 24.26C102.042 24.26 103.069 23.9567 103.956 23.35C104.866 22.7433 105.566 21.9267 106.056 20.9C106.569 19.85 106.826 18.6717 106.826 17.365C106.826 16.0817 106.569 14.9267 106.056 13.9C105.566 12.85 104.866 12.0333 103.956 11.45C103.069 10.8433 102.042 10.54 100.876 10.54C99.7324 10.54 98.7058 10.8317 97.7958 11.415C96.9091 11.9983 96.2091 12.8033 95.6958 13.83C95.1824 14.8567 94.9258 16.035 94.9258 17.365C94.9258 18.6717 95.1708 19.85 95.6608 20.9C96.1741 21.9267 96.8741 22.7433 97.7608 23.35C98.6708 23.9567 99.7091 24.26 100.876 24.26ZM123.67 7.95C125.256 7.95 126.505 8.27667 127.415 8.93C128.325 9.58333 128.966 10.4583 129.34 11.555C129.736 12.6517 129.935 13.8767 129.935 15.23V25.065C129.935 25.4617 129.795 25.8 129.515 26.08C129.258 26.36 128.931 26.5 128.535 26.5C128.138 26.5 127.8 26.36 127.52 26.08C127.263 25.8 127.135 25.4617 127.135 25.065V15.3C127.135 14.4133 126.995 13.62 126.715 12.92C126.458 12.1967 126.015 11.625 125.385 11.205C124.778 10.7617 123.938 10.54 122.865 10.54C121.885 10.54 120.986 10.7617 120.17 11.205C119.353 11.625 118.7 12.1967 118.21 12.92C117.72 13.62 117.475 14.4133 117.475 15.3V25.065C117.475 25.4617 117.335 25.8 117.055 26.08C116.798 26.36 116.471 26.5 116.075 26.5C115.678 26.5 115.34 26.36 115.06 26.08C114.803 25.8 114.675 25.4617 114.675 25.065V9.805C114.675 9.40833 114.803 9.08167 115.06 8.825C115.34 8.545 115.678 8.405 116.075 8.405C116.495 8.405 116.833 8.545 117.09 8.825C117.346 9.08167 117.475 9.40833 117.475 9.805V12.29L116.775 13.06C116.891 12.4533 117.16 11.8467 117.58 11.24C118 10.61 118.525 10.05 119.155 9.56C119.785 9.07 120.485 8.685 121.255 8.405C122.025 8.10167 122.83 7.95 123.67 7.95ZM150.024 0.6C150.421 0.6 150.748 0.739999 151.004 1.02C151.284 1.27667 151.424 1.60333 151.424 2V25.065C151.424 25.4617 151.284 25.8 151.004 26.08C150.748 26.36 150.421 26.5 150.024 26.5C149.604 26.5 149.266 26.36 149.009 26.08C148.753 25.8 148.624 25.4617 148.624 25.065V21.74L149.289 21.495C149.289 22.055 149.114 22.65 148.764 23.28C148.414 23.8867 147.936 24.4583 147.329 24.995C146.723 25.5317 145.999 25.975 145.159 26.325C144.343 26.675 143.456 26.85 142.499 26.85C140.936 26.85 139.513 26.4417 138.229 25.625C136.969 24.8083 135.966 23.6883 135.219 22.265C134.496 20.8417 134.134 19.22 134.134 17.4C134.134 15.5567 134.496 13.9233 135.219 12.5C135.966 11.0767 136.969 9.96833 138.229 9.175C139.489 8.35833 140.889 7.95 142.429 7.95C143.409 7.95 144.331 8.11333 145.194 8.44C146.058 8.76667 146.804 9.21 147.434 9.77C148.088 10.33 148.601 10.9483 148.974 11.625C149.348 12.3017 149.534 12.9783 149.534 13.655L148.624 13.445V2C148.624 1.60333 148.753 1.27667 149.009 1.02C149.266 0.739999 149.604 0.6 150.024 0.6ZM142.814 24.26C143.981 24.26 145.008 23.9683 145.894 23.385C146.804 22.7783 147.504 21.9617 147.994 20.935C148.508 19.885 148.764 18.7067 148.764 17.4C148.764 16.07 148.508 14.8917 147.994 13.865C147.504 12.8383 146.804 12.0333 145.894 11.45C145.008 10.8433 143.981 10.54 142.814 10.54C141.671 10.54 140.644 10.8433 139.734 11.45C138.848 12.0333 138.148 12.8383 137.634 13.865C137.121 14.8917 136.864 16.07 136.864 17.4C136.864 18.6833 137.121 19.85 137.634 20.9C138.148 21.9267 138.848 22.7433 139.734 23.35C140.644 23.9567 141.671 24.26 142.814 24.26Z" fill="white"/>
</g>
</symbol>
<symbol viewBox="0 0 21 21" id="instagram">
<g>
<path d="M10.0078 4.87388C7.16852 4.87388 4.87834 7.16406 4.87834 10.0033C4.87834 12.8426 7.16852 15.1328 10.0078 15.1328C12.8471 15.1328 15.1373 12.8426 15.1373 10.0033C15.1373 7.16406 12.8471 4.87388 10.0078 4.87388ZM10.0078 13.3382C8.17298 13.3382 6.67298 11.8426 6.67298 10.0033C6.67298 8.16406 8.16851 6.66853 10.0078 6.66853C11.8471 6.66853 13.3426 8.16406 13.3426 10.0033C13.3426 11.8426 11.8426 13.3382 10.0078 13.3382ZM16.5435 4.66406C16.5435 5.32924 16.0078 5.86049 15.3471 5.86049C14.6819 5.86049 14.1506 5.32478 14.1506 4.66406C14.1506 4.00335 14.6864 3.46763 15.3471 3.46763C16.0078 3.46763 16.5435 4.00335 16.5435 4.66406ZM19.9408 5.87835C19.8649 4.27567 19.4989 2.85603 18.3247 1.68638C17.1551 0.516741 15.7355 0.15067 14.1328 0.0703125C12.481 -0.0234375 7.53012 -0.0234375 5.87834 0.0703125C4.28013 0.146205 2.86049 0.512277 1.68638 1.68192C0.512276 2.85156 0.150669 4.27121 0.0703124 5.87388C-0.0234375 7.52567 -0.0234375 12.4766 0.0703124 14.1283C0.146205 15.731 0.512276 17.1507 1.68638 18.3203C2.86049 19.49 4.27566 19.856 5.87834 19.9364C7.53012 20.0301 12.481 20.0301 14.1328 19.9364C15.7355 19.8605 17.1551 19.4944 18.3247 18.3203C19.4944 17.1507 19.8605 15.731 19.9408 14.1283C20.0346 12.4766 20.0346 7.53013 19.9408 5.87835ZM17.8069 15.9007C17.4587 16.7757 16.7846 17.4498 15.9051 17.8025C14.5881 18.3248 11.4632 18.2042 10.0078 18.2042C8.55244 18.2042 5.42298 18.3203 4.11048 17.8025C3.23549 17.4542 2.56138 16.7801 2.2087 15.9007C1.68638 14.5837 1.80692 11.4587 1.80692 10.0033C1.80692 8.54799 1.69085 5.41853 2.2087 4.10603C2.55692 3.23103 3.23102 2.55692 4.11048 2.20424C5.42745 1.68192 8.55244 1.80246 10.0078 1.80246C11.4632 1.80246 14.5926 1.68638 15.9051 2.20424C16.7801 2.55246 17.4542 3.22656 17.8069 4.10603C18.3292 5.42299 18.2087 8.54799 18.2087 10.0033C18.2087 11.4587 18.3292 14.5882 17.8069 15.9007Z" fill="#0D0D0D"/>

</g>
</symbol>
<symbol viewBox="0 0 10 19" id="facebook">
<g>
<path d="M9.34469 10.5025L9.86325 7.12348H6.62096V4.93071C6.62096 4.00627 7.07388 3.10517 8.526 3.10517H10V0.228284C10 0.228284 8.66239 0 7.38349 0C4.71337 0 2.96806 1.61841 2.96806 4.54817V7.12348H0V10.5025H2.96806V18.6711H6.62096V10.5025H9.34469Z" fill="#0D0D0D"/>
</g>
</symbol>
<symbol viewBox="0 0 20 20" id="github">
<g>

<path d="M6.68952 15.7016C6.68952 15.7823 6.59677 15.8468 6.47984 15.8468C6.34677 15.8589 6.25403 15.7944 6.25403 15.7016C6.25403 15.621 6.34677 15.5565 6.46371 15.5565C6.58468 15.5444 6.68952 15.6089 6.68952 15.7016ZM5.43548 15.5202C5.40726 15.6008 5.4879 15.6935 5.60887 15.7177C5.71371 15.7581 5.83468 15.7177 5.85887 15.6371C5.88306 15.5565 5.80645 15.4637 5.68548 15.4274C5.58065 15.3992 5.46371 15.4395 5.43548 15.5202ZM7.21774 15.4516C7.10081 15.4798 7.02016 15.5565 7.03226 15.6492C7.04435 15.7298 7.14919 15.7823 7.27016 15.754C7.3871 15.7258 7.46774 15.6492 7.45564 15.5685C7.44355 15.4919 7.33468 15.4395 7.21774 15.4516ZM9.87097 0C4.27823 0 0 4.24597 0 9.83871C0 14.3105 2.81452 18.1371 6.83468 19.4839C7.35081 19.5766 7.53226 19.2581 7.53226 18.996C7.53226 18.746 7.52016 17.3669 7.52016 16.5202C7.52016 16.5202 4.69758 17.125 4.10484 15.3185C4.10484 15.3185 3.64516 14.1452 2.98387 13.8427C2.98387 13.8427 2.06048 13.2097 3.04839 13.2218C3.04839 13.2218 4.05242 13.3024 4.60484 14.2621C5.4879 15.8185 6.96774 15.371 7.54435 15.1048C7.6371 14.4597 7.89919 14.0121 8.18952 13.746C5.93548 13.496 3.66129 13.1694 3.66129 9.29032C3.66129 8.18145 3.96774 7.625 4.6129 6.91532C4.50806 6.65323 4.16532 5.57258 4.71774 4.17742C5.56048 3.91532 7.5 5.26613 7.5 5.26613C8.30645 5.04032 9.17339 4.92339 10.0323 4.92339C10.8911 4.92339 11.7581 5.04032 12.5645 5.26613C12.5645 5.26613 14.504 3.91129 15.3468 4.17742C15.8992 5.57661 15.5565 6.65323 15.4516 6.91532C16.0968 7.62903 16.4919 8.18548 16.4919 9.29032C16.4919 13.1815 14.1169 13.4919 11.8629 13.746C12.2339 14.0645 12.5484 14.6694 12.5484 15.6169C12.5484 16.9758 12.5363 18.6573 12.5363 18.9879C12.5363 19.25 12.7218 19.5685 13.2339 19.4758C17.2661 18.1371 20 14.3105 20 9.83871C20 4.24597 15.4637 0 9.87097 0ZM3.91935 13.9073C3.86694 13.9476 3.87903 14.0403 3.94758 14.1169C4.0121 14.1815 4.10484 14.2097 4.15726 14.1573C4.20968 14.1169 4.19758 14.0242 4.12903 13.9476C4.06452 13.8831 3.97177 13.8548 3.91935 13.9073ZM3.48387 13.5806C3.45565 13.6331 3.49597 13.6976 3.57661 13.7379C3.64113 13.7782 3.72177 13.7661 3.75 13.7097C3.77823 13.6573 3.7379 13.5927 3.65726 13.5524C3.57661 13.5282 3.5121 13.5403 3.48387 13.5806ZM4.79032 15.0161C4.72581 15.0685 4.75 15.1895 4.84274 15.2661C4.93548 15.3589 5.05242 15.371 5.10484 15.3065C5.15726 15.254 5.13306 15.1331 5.05242 15.0565C4.96371 14.9637 4.84274 14.9516 4.79032 15.0161ZM4.33065 14.4234C4.26613 14.4637 4.26613 14.5685 4.33065 14.6613C4.39516 14.754 4.50403 14.7944 4.55645 14.754C4.62097 14.7016 4.62097 14.5968 4.55645 14.504C4.5 14.4113 4.39516 14.371 4.33065 14.4234Z" fill="#0D0D0D"/>


</g>
</symbol>
<symbol viewBox="0 0 20 20" id="dribble">
<g>

<path d="M9.6875 0C4.34578 0 0 4.34578 0 9.6875C0 15.0292 4.34578 19.375 9.6875 19.375C15.0292 19.375 19.375 15.0292 19.375 9.6875C19.375 4.34578 15.0292 0 9.6875 0ZM16.0926 4.46742C17.245 5.87547 17.9429 7.66887 17.9611 9.62191C17.6883 9.56422 14.9526 9.00934 12.1993 9.35559C11.9746 8.80711 11.7626 8.32461 11.4721 7.73004C14.5315 6.48094 15.9181 4.7034 16.0926 4.46742ZM15.1727 3.51055C15.0239 3.72254 13.7783 5.39672 10.8359 6.49957C9.48 4.00832 7.97715 1.96176 7.74844 1.65551C10.3725 1.02297 13.1377 1.70512 15.1727 3.51055ZM6.16957 2.21172C6.38773 2.5109 7.86637 4.56 9.23742 6.99723C5.36684 8.02508 1.95773 8.01027 1.58766 8.00539C2.12422 5.4377 3.85461 3.30363 6.16957 2.21172ZM1.41289 9.70012C1.41289 9.61551 1.41457 9.53129 1.41711 9.44727C1.77914 9.45469 5.78898 9.50637 9.92125 8.26969C10.1581 8.73328 10.3844 9.20387 10.5921 9.67395C7.59996 10.5167 4.88141 12.9367 3.54012 15.2328C2.21852 13.7658 1.41289 11.8254 1.41289 9.70012ZM4.60848 16.228C5.47281 14.4611 7.81855 12.1802 11.1545 11.0422C12.3162 14.0611 12.7967 16.5911 12.9197 17.3171C10.2591 18.4504 7.05977 18.1395 4.60848 16.228ZM14.3108 16.5596C14.226 16.0562 13.7856 13.6339 12.7033 10.6598C15.2963 10.2448 17.5744 10.9242 17.8575 11.0136C17.4887 13.3159 16.1671 15.3043 14.3108 16.5596Z" fill="#0D0D0D"/>


</g>
</symbol>
<symbol viewBox="0 0 20 17" id="twitter">
<g>

<path d="M17.9441 4.0482C17.9568 4.22586 17.9568 4.40355 17.9568 4.58121C17.9568 9.99996 13.8325 16.2436 6.29441 16.2436C3.97207 16.2436 1.81473 15.571 0 14.4036C0.329961 14.4416 0.647187 14.4543 0.989844 14.4543C2.90605 14.4543 4.67004 13.8071 6.07867 12.703C4.27664 12.665 2.76648 11.4848 2.24617 9.86039C2.5 9.89844 2.75379 9.92383 3.02031 9.92383C3.38832 9.92383 3.75637 9.87305 4.09898 9.78426C2.22082 9.40352 0.812148 7.75379 0.812148 5.76141V5.71066C1.35781 6.01523 1.99238 6.20559 2.66492 6.23094C1.56086 5.49488 0.837539 4.23855 0.837539 2.81723C0.837539 2.05582 1.04055 1.35785 1.3959 0.748711C3.41367 3.23602 6.44668 4.86035 9.84766 5.03805C9.78422 4.73348 9.74613 4.41625 9.74613 4.09898C9.74613 1.84008 11.5736 0 13.8451 0C15.0253 0 16.0913 0.494922 16.84 1.29441C17.7664 1.11676 18.6547 0.774102 19.4416 0.30457C19.137 1.25637 18.4898 2.05586 17.6395 2.56344C18.4644 2.47465 19.2639 2.24617 19.9999 1.92895C19.4416 2.74109 18.7436 3.46441 17.9441 4.0482V4.0482Z" fill="#3DB370"/>


</g></symbol>
</svg>