<svg width="500" height="39" viewBox="0 0 500 39" fill="none" xmlns="http://www.w3.org/2000/svg">
<path d="M3.61 31V8.6H6.81V28.216H18.938V31H3.61ZM29.2073 31.192C27.5006 31.192 25.9859 30.8187 24.6633 30.072C23.3406 29.3253 22.2953 28.3013 21.5273 27C20.7593 25.6773 20.3753 24.184 20.3753 22.52C20.3753 20.8347 20.7593 19.3413 21.5273 18.04C22.2953 16.7387 23.3406 15.7253 24.6633 15C25.9859 14.2533 27.5006 13.88 29.2073 13.88C30.8926 13.88 32.3966 14.2533 33.7193 15C35.0633 15.7253 36.1086 16.7387 36.8553 18.04C37.6233 19.32 38.0073 20.8133 38.0073 22.52C38.0073 24.2053 37.6233 25.6987 36.8553 27C36.1086 28.3013 35.0633 29.3253 33.7193 30.072C32.3966 30.8187 30.8926 31.192 29.2073 31.192ZM29.2073 28.504C30.2953 28.504 31.2659 28.2587 32.1193 27.768C32.9939 27.2773 33.6766 26.584 34.1673 25.688C34.6579 24.7707 34.9033 23.7147 34.9033 22.52C34.9033 21.304 34.6579 20.2587 34.1673 19.384C33.6766 18.488 32.9939 17.7947 32.1193 17.304C31.2659 16.8133 30.2953 16.568 29.2073 16.568C28.1193 16.568 27.1486 16.8133 26.2953 17.304C25.4419 17.7947 24.7593 18.488 24.2473 19.384C23.7353 20.2587 23.4793 21.304 23.4793 22.52C23.4793 23.7147 23.7353 24.7707 24.2473 25.688C24.7593 26.584 25.4419 27.2773 26.2953 27.768C27.1486 28.2587 28.1193 28.504 29.2073 28.504ZM49.6798 37.4C48.1224 37.4 46.6078 37.176 45.1358 36.728C43.6851 36.3013 42.5011 35.6827 41.5838 34.872L43.0558 32.504C43.8451 33.1867 44.8158 33.72 45.9678 34.104C47.1198 34.5093 48.3251 34.712 49.5838 34.712C51.5891 34.712 53.0611 34.2427 53.9998 33.304C54.9384 32.3653 55.4078 30.936 55.4078 29.016V25.432L55.7278 22.072L55.5678 18.68V14.04H58.4798V28.696C58.4798 31.6827 57.7331 33.88 56.2397 35.288C54.7464 36.696 52.5598 37.4 49.6798 37.4ZM49.2958 30.296C47.6531 30.296 46.1811 29.9547 44.8798 29.272C43.5998 28.568 42.5758 27.5973 41.8078 26.36C41.0611 25.1227 40.6878 23.6933 40.6878 22.072C40.6878 20.4293 41.0611 19 41.8078 17.784C42.5758 16.5467 43.5998 15.5867 44.8798 14.904C46.1811 14.2213 47.6531 13.88 49.2958 13.88C50.7464 13.88 52.0691 14.1787 53.2638 14.776C54.4584 15.352 55.4078 16.248 56.1118 17.464C56.8371 18.68 57.1998 20.216 57.1998 22.072C57.1998 23.9067 56.8371 25.432 56.1118 26.648C55.4078 27.864 54.4584 28.7813 53.2638 29.4C52.0691 29.9973 50.7464 30.296 49.2958 30.296ZM49.6478 27.608C50.7784 27.608 51.7811 27.3733 52.6558 26.904C53.5304 26.4347 54.2131 25.784 54.7038 24.952C55.2158 24.12 55.4718 23.16 55.4718 22.072C55.4718 20.984 55.2158 20.024 54.7038 19.192C54.2131 18.36 53.5304 17.72 52.6558 17.272C51.7811 16.8027 50.7784 16.568 49.6478 16.568C48.5171 16.568 47.5038 16.8027 46.6078 17.272C45.7331 17.72 45.0398 18.36 44.5278 19.192C44.0371 20.024 43.7918 20.984 43.7918 22.072C43.7918 23.16 44.0371 24.12 44.5278 24.952C45.0398 25.784 45.7331 26.4347 46.6078 26.904C47.5038 27.3733 48.5171 27.608 49.6478 27.608ZM71.6135 31.192C69.9068 31.192 68.3922 30.8187 67.0695 30.072C65.7468 29.3253 64.7015 28.3013 63.9335 27C63.1655 25.6773 62.7815 24.184 62.7815 22.52C62.7815 20.8347 63.1655 19.3413 63.9335 18.04C64.7015 16.7387 65.7468 15.7253 67.0695 15C68.3922 14.2533 69.9068 13.88 71.6135 13.88C73.2988 13.88 74.8028 14.2533 76.1255 15C77.4695 15.7253 78.5148 16.7387 79.2615 18.04C80.0295 19.32 80.4135 20.8133 80.4135 22.52C80.4135 24.2053 80.0295 25.6987 79.2615 27C78.5148 28.3013 77.4695 29.3253 76.1255 30.072C74.8028 30.8187 73.2988 31.192 71.6135 31.192ZM71.6135 28.504C72.7015 28.504 73.6722 28.2587 74.5255 27.768C75.4002 27.2773 76.0828 26.584 76.5735 25.688C77.0642 24.7707 77.3095 23.7147 77.3095 22.52C77.3095 21.304 77.0642 20.2587 76.5735 19.384C76.0828 18.488 75.4002 17.7947 74.5255 17.304C73.6722 16.8133 72.7015 16.568 71.6135 16.568C70.5255 16.568 69.5548 16.8133 68.7015 17.304C67.8482 17.7947 67.1655 18.488 66.6535 19.384C66.1415 20.2587 65.8855 21.304 65.8855 22.52C65.8855 23.7147 66.1415 24.7707 66.6535 25.688C67.1655 26.584 67.8482 27.2773 68.7015 27.768C69.5548 28.2587 70.5255 28.504 71.6135 28.504Z" fill="black"/>
<line y1="38.5" x2="500" y2="38.5" stroke="black"/>
</svg>
